<svg width="28" height="28" viewBox="0 0 28 28" fill="none" xmlns="http://www.w3.org/2000/svg">
<path d="M3.5 8C3.5 7.44772 3.94772 7 4.5 7H23.5C24.0523 7 24.5 7.44772 24.5 8V8.33333C24.5 8.88562 24.0523 9.33333 23.5 9.33333H4.5C3.94772 9.33333 3.5 8.88562 3.5 8.33333V8ZM3.5 13.8333C3.5 13.281 3.94772 12.8333 4.5 12.8333H23.5C24.0523 12.8333 24.5 13.281 24.5 13.8333V14.1667C24.5 14.719 24.0523 15.1667 23.5 15.1667H4.5C3.94772 15.1667 3.5 14.719 3.5 14.1667V13.8333ZM3.5 19.6667C3.5 19.1144 3.94772 18.6667 4.5 18.6667H23.5C24.0523 18.6667 24.5 19.1144 24.5 19.6667V20C24.5 20.5523 24.0523 21 23.5 21H4.5C3.94772 21 3.5 20.5523 3.5 20V19.6667Z" fill="#222222"/>
</svg>
