<svg width="40" height="40" viewBox="0 0 40 40" fill="none" xmlns="http://www.w3.org/2000/svg">
<circle cx="20" cy="20" r="20" fill="white"/>
<g clip-path="url(#clip0_633_1009)">
<path d="M24.2579 7H22.8755C23.2268 7.45426 23.5585 7.94671 23.8625 8.4753C25.9709 12.1465 25.9514 16.1264 23.8183 17.3643C21.6853 18.6021 18.2469 16.6302 16.1385 12.959C14.9483 10.888 14.4368 8.71998 14.5991 7H9.61311C9.2742 7 9 7.27565 9 7.61634V26.0292C9 29.8791 12.1046 33.001 15.9352 33.001H17.6862C17.1245 32.3764 16.5997 31.6537 16.1375 30.8505C14.0291 27.1793 14.0486 23.1994 16.1827 21.9616C18.3158 20.7237 21.7541 22.6956 23.8625 26.3668C25.214 28.7197 25.6895 31.1974 25.2961 33.001H30.3879C30.7268 33.001 31.001 32.7254 31.001 32.3847V13.7777C31 10.0342 27.9817 7 24.2579 7Z" fill="#EF5E08"/>
</g>
<defs>
<clipPath id="clip0_633_1009">
<rect width="22" height="26" fill="white" transform="translate(9 7)"/>
</clipPath>
</defs>
</svg>
