<svg width="36" height="36" viewBox="0 0 36 36" fill="none" xmlns="http://www.w3.org/2000/svg">
<path d="M13.4 30C14.5046 30 15.4 29.1046 15.4 28V23.5294C15.4 22.4248 16.2954 21.5294 17.4 21.5294H18.6C19.7046 21.5294 20.6 22.4248 20.6 23.5294V28C20.6 29.1046 21.4954 30 22.6 30H25.1C26.2046 30 27.1 29.1046 27.1 28V19.8351C27.1 19.2114 27.6056 18.7059 28.2292 18.7059C29.2414 18.7059 29.7423 17.4767 29.0184 16.7692L19.3979 7.36632C18.6208 6.60672 17.3792 6.60671 16.6021 7.36631L6.98155 16.7692C6.25765 17.4767 6.75858 18.7059 7.77082 18.7059C8.39445 18.7059 8.9 19.2114 8.9 19.8351V28C8.9 29.1046 9.79543 30 10.9 30H13.4Z" fill="#EF5E08"/>
</svg>
