<svg width="24" height="24" viewBox="0 0 24 24" fill="none" xmlns="http://www.w3.org/2000/svg">
<path d="M17 7L16.2957 7.70426C15.9058 8.09425 15.9051 8.72636 16.2944 9.1171L16.4708 9.29426C17.0989 9.92478 16.6523 11 15.7624 11H9C8.44771 11 8 11.4477 8 12C8 12.5523 8.44772 13 9 13H15.7558C16.6467 13 17.0929 14.0771 16.4629 14.7071L16.2946 14.8754C15.9051 15.2649 15.9043 15.8966 16.2925 16.2875C16.6826 16.6804 17.3181 16.6819 17.7096 16.2904L22 12M4 6C4 5.44772 4.44772 5 5 5H11C11.5523 5 12 4.55228 12 4C12 3.44772 11.5523 3 11 3H4C2.9 3 2 3.9 2 5V19C2 20.1 2.9 21 4 21H11C11.5523 21 12 20.5523 12 20C12 19.4477 11.5523 19 11 19H5C4.44772 19 4 18.5523 4 18V6Z" fill="black"/>
</svg>
