<svg width="36" height="36" viewBox="0 0 36 36" fill="none" xmlns="http://www.w3.org/2000/svg">
<path d="M6.5 28.6H26.9C27.5627 28.6 28.1 28.0627 28.1 27.4C28.1 26.7373 27.5627 26.2 26.9 26.2H6.5M28.1 13H27.5C26.5059 13 25.7 12.1941 25.7 11.2C25.7 10.2059 26.5059 9.4 27.5 9.4H28.1M28.1 7H10.9C9.79543 7 8.9 7.89543 8.9 9V19C8.9 20.273 9.40571 21.4939 10.3059 22.3941C11.2061 23.2943 12.427 23.8 13.7 23.8H20.9C22.173 23.8 23.3939 23.2943 24.2941 22.3941C25.1943 21.4939 25.7 20.273 25.7 19V17.4C25.7 16.2954 26.5954 15.4 27.7 15.4H28.1C28.7365 15.4 29.347 15.1471 29.7971 14.6971C30.2471 14.247 30.5 13.6365 30.5 13V9.4C30.5 8.068 29.42 7 28.1 7Z" fill="black"/>
</svg>
