<svg width="36" height="36" viewBox="0 0 36 36" fill="none" xmlns="http://www.w3.org/2000/svg">
<path d="M18 25.0003H12C11.4477 25.0003 11 24.5526 11 24.0003V21.3337C11 20.7814 11.4477 20.3337 12 20.3337H18M28.5 20.3337V18.0993C28.5 18.0335 28.4935 17.9678 28.4806 17.9032L27.4941 12.9709C27.4006 12.5035 26.9902 12.167 26.5135 12.167H9.48647C9.00979 12.167 8.59937 12.5035 8.50589 12.9709L7.51942 17.9032C7.5065 17.9678 7.5 18.0335 7.5 18.0993V19.7503C7.5 20.0725 7.76117 20.3337 8.08333 20.3337C8.4055 20.3337 8.66667 20.5948 8.66667 20.917V26.3337C8.66667 26.8859 9.11438 27.3337 9.66667 27.3337H19.3333C19.8856 27.3337 20.3333 26.8859 20.3333 26.3337V21.3337C20.3333 20.7814 20.781 20.3337 21.3333 20.3337H24C24.5523 20.3337 25 20.7814 25 21.3337V26.3337C25 26.8859 25.4477 27.3337 26 27.3337H26.3333C26.8856 27.3337 27.3333 26.8859 27.3333 26.3337V20.3337M27.3333 9.66699C27.3333 9.11471 26.8856 8.66699 26.3333 8.66699H9.66667C9.11438 8.66699 8.66667 9.11471 8.66667 9.66699V10.0003C8.66667 10.5526 9.11438 11.0003 9.66667 11.0003H26.3333C26.8856 11.0003 27.3333 10.5526 27.3333 10.0003V9.66699Z" fill="black"/>
</svg>
