<svg width="40" height="40" viewBox="0 0 40 40" fill="none" xmlns="http://www.w3.org/2000/svg">
<path d="M37 20C38.6569 20 40.0231 21.3507 39.7755 22.9889C39.1712 26.987 37.3642 30.7339 34.5598 33.7117C31.0656 37.4221 26.2865 39.6585 21.1989 39.964C16.1113 40.2696 11.0989 38.6212 7.18573 35.3556C3.27251 32.09 0.753684 27.4536 0.143734 22.3935C-0.466217 17.3333 0.878736 12.2312 3.90387 8.12925C6.92901 4.02732 11.4061 1.2351 16.4206 0.322916C21.4351 -0.589266 26.6086 0.447423 30.8845 3.22123C34.3161 5.44734 36.9618 8.65751 38.4988 12.3975C39.1286 13.93 38.1225 15.5666 36.5131 15.9603V15.9603C34.9037 16.3541 33.3075 15.3463 32.5805 13.8574C31.4738 11.5909 29.7663 9.64772 27.6192 8.25486C24.626 6.3132 21.0045 5.58751 17.4944 6.22604C13.9842 6.86457 10.8503 8.81913 8.73271 11.6905C6.61511 14.5618 5.67365 18.1333 6.10061 21.6754C6.52758 25.2175 8.29076 28.463 11.03 30.7489C13.7693 33.0348 17.2779 34.1887 20.8392 33.9748C24.4006 33.761 27.7459 32.1955 30.1919 29.5982C31.9465 27.735 33.1434 25.4417 33.6798 22.9772C34.0322 21.3582 35.3431 20 37 20V20Z" fill="url(#paint0_angular_1200_3586)"/>
<defs>
<radialGradient id="paint0_angular_1200_3586" cx="0" cy="0" r="1" gradientUnits="userSpaceOnUse" gradientTransform="translate(20 20) rotate(-6.58195) scale(20.1327)">
<stop stop-color="#FFFEFB"/>
<stop offset="1" stop-color="#E5DED4"/>
</radialGradient>
</defs>
</svg>
